<svg xmlns="http://www.w3.org/2000/svg" viewBox="0 0 202.3 175.5"><defs><style>.a{fill:none;}.b{fill:#0c9f49;}.c{fill:#68bf68;}.d{fill:#2d6e47;}</style></defs><title>Icon</title><polygon class="a" points="57.8 175.5 70.2 175.5 101.2 121.9 132.1 175.5 144.5 175.5 101.2 100.4 57.8 175.5"/><line class="a" x1="143.8" y1="175.5" x2="131.4" y2="175.5"/><line class="a" x1="109.1" y1="175.5" x2="93.3" y2="175.5"/><polygon class="a" points="93.3 175.5 109.1 175.5 101.2 161.9 93.3 175.5"/><line class="a" x1="70.2" y1="175.5" x2="57.8" y2="175.5"/><polygon class="b" points="101.2 100.4 144.5 175.5 167.6 175.5 101.2 60.4 34.7 175.5 57.8 175.5 101.2 100.4"/><polygon class="c" points="101.2 161.9 109.1 175.5 132.1 175.5 101.2 121.9 70.2 175.5 93.3 175.5 101.2 161.9"/><path class="d" d="M20.3,175.5a3.6,3.6,0,0,0,3-1.7L100.2,40.7c.5-1,1.4-1,2,0L179,173.8a3.8,3.8,0,0,0,3,1.7h19.1c1.1,0,1.6-.7,1-1.7L102.2.7c-.6-.9-1.5-.9-2,0L.2,173.8c-.5,1-.1,1.7,1,1.7Z"/></svg>