<svg xmlns="http://www.w3.org/2000/svg" viewBox="0 0 491.5 429"><defs><style>.a{fill:#c6c6c6;}</style></defs><title>memories</title><path class="a" d="M249.9,392.8H93.2c-14.4,0-26.1-5.2-34.6-16.9a34.6,34.6,0,0,1-6.9-20.1c0-4.4-.1-8.9-.1-13.4q0-115.7,0-231.5c-.1-15.1,5.1-27.4,17.2-36.5A35.4,35.4,0,0,1,90.1,67h51.7c6.4,0,10.2,3.9,10,9.7s-3.7,9.3-9.9,9.3c-15.3.2-30.7.1-46,.1S70.8,95,70.8,110.9V351c0,13.9,7.9,22,21.8,22.6H405a41.2,41.2,0,0,0,9.9-1.1,20.4,20.4,0,0,0,14.6-19.7q.2-123,0-245.9c0-12.1-9.3-20.7-22.6-20.8H266.5C259,86,255.3,82,256.1,75c.5-5.3,4.1-8,10.9-8h96.3c14.6,0,29.1.5,43.6-.1,26.1-.9,42.5,20.2,42.4,42.4q-.7,120.7,0,241.5c.1,22.4-17.6,42.5-42.2,42.3C354.7,392.5,302.3,392.8,249.9,392.8Z"/><path class="a" d="M326.4,225.1a86.4,86.4,0,0,1-172.8-.7c.2-47.5,39.4-86.4,86.8-86.2A86.4,86.4,0,0,1,326.4,225.1Zm-19.5-.2a66.9,66.9,0,1,0-133.8-.1c0,36.4,30.4,66.7,66.9,66.8A66.3,66.3,0,0,0,306.9,224.9Z"/><path class="a" d="M408.1,132.9c-.1,14.2-11,24.9-25.3,24.9s-24.5-11.2-24.5-25.2a24.9,24.9,0,1,1,49.8.3Z"/><path class="a" d="M204,26c13,0,26.1-.1,39.2,0,7,0,10.5,3.1,10.5,9.4s-3.5,10.1-10.5,10.1q-39.3.2-78.4,0c-6.6,0-11.2-4.3-11.2-10s4.1-9.5,11.2-9.5C177.8,25.9,190.9,26,204,26Z"/></svg>